PathFileType	4	(x/y/z)	S06_M20_T24
DataRate	CameraRate	NumFrames	NumMarkers	Units	OrigDataRate	OrigDataStartFrame	OrigNumFrames
240	240	5	51	mm	240	1	481
Frame#	Time	Sternum			R.Acromium			L.Acromium			Top.Head			R.ASIS			L.ASIS			R.PSIS			L.PSIS			R.Great.Tro			L.Great.Tro			R.Iliac.Crest			L.Iliac.Crest			V.Sacral			R.Thigh.Upper.Post			R.Thigh.Lower.Ant			R.Thigh.Lower.Post			R.Thigh.Upper.Ant			R.Knee.Lat			R.Knee.Med			R.Shank.Upper.Post			R.Shank.Lower.Ant			R.Shank.Lower.Post			R.Shank.Upper.Ant			R.Ankle.Lat			R.Ankle.Med			R.Heel.Upper			R.Heel.Med			R.Heel.Lat			R.Toe.Lat			R.Toe.Med			R.Toe.Tip			L.Thigh.Upper.Post			L.Thigh.Lower.Ant			L.Thigh.Lower.Post			L.Thigh.Upper.Ant			L.Knee.Lat			L.Knee.Med			L.Shank.Upper.Post			L.Shank.Lower.Ant			L.Shank.Lower.Post			L.Shank.Upper.Ant			L.Ankle.Lat			L.Ankle.Med			L.Heel.Upper			L.Heel.Med			L.Heel.Lat			L.Toe.Lat			L.Toe.Med			L.Toe.Tip			Cervical.Spine			Back			
		X1	Y1	Z1	X2	Y2	Z2	X3	Y3	Z3	X4	Y4	Z4	X5	Y5	Z5	X6	Y6	Z6	X7	Y7	Z7	X8	Y8	Z8	X9	Y9	Z9	X10	Y10	Z10	X11	Y11	Z11	X12	Y12	Z12	X13	Y13	Z13	X14	Y14	Z14	X15	Y15	Z15	X16	Y16	Z16	X17	Y17	Z17	X18	Y18	Z18	X19	Y19	Z19	X20	Y20	Z20	X21	Y21	Z21	X22	Y22	Z22	X23	Y23	Z23	X24	Y24	Z24	X25	Y25	Z25	X26	Y26	Z26	X27	Y27	Z27	X28	Y28	Z28	X29	Y29	Z29	X30	Y30	Z30	X31	Y31	Z31	X32	Y32	Z32	X33	Y33	Z33	X34	Y34	Z34	X35	Y35	Z35	X36	Y36	Z36	X37	Y37	Z37	X38	Y38	Z38	X39	Y39	Z39	X40	Y40	Z40	X41	Y41	Z41	X42	Y42	Z42	X43	Y43	Z43	X44	Y44	Z44	X45	Y45	Z45	X46	Y46	Z46	X47	Y47	Z47	X48	Y48	Z48	X49	Y49	Z49	X50	Y50	Z50	X51	Y51	Z51	

1	0	NaN	NaN	NaN	-1683.7	1472	464.35	-1729.4	1472.3	116.95	-1644	1786.4	285.51	NaN	NaN	NaN	NaN	NaN	NaN	-1802.5	1047.9	328.55	-1806.1	1046.6	248.94	-1681.2	967.1	476.42	-1692.4	945.52	121.33	-1698.2	1112.3	455.02	-1676.6	1095	133.02	-1818.7	1013.9	294.94	-1756.7	733.28	454.98	NaN	NaN	NaN	-1793.7	654.82	433.68	-1685.2	720.31	440.23	-1822.8	541.82	414.58	-1802.9	547.78	287.13	NaN	NaN	NaN	-1915.6	263.42	373.68	-1979	276.62	376.09	-1885.7	330.81	394.31	-2005.1	146.47	346.36	-1984.6	151.23	263.68	-2077.3	120.46	294.98	-2072.5	86.314	266.72	-2078.8	90.059	330.5	-1909.2	46.824	382.38	-1876.7	45.776	262.02	-1811.1	50.712	311.78	-1535	716.72	141.83	NaN	NaN	NaN	-1521.4	628.24	161.93	-1488.9	751.48	185.77	-1499.8	541.5	179.72	-1481	553.7	301.35	-1443.3	317.8	190.7	-1358.7	291.91	183.75	-1416.1	252.49	205.62	-1388.1	355.35	174.32	-1303	144.5	198.52	-1298.7	174.29	286.43	NaN	NaN	NaN	NaN	NaN	NaN	-1315	46.251	224.41	-1166.7	143.44	179.15	-1158.7	174.67	291.72	-1111.5	223.91	233.89	-1761.3	1526.4	296.28	-1816.6	1252.3	299.8
2	0.0041667	NaN	NaN	NaN	-1678.8	1471.8	464.01	-1724.5	1471.9	116.61	-1639.1	1786.1	285.15	NaN	NaN	NaN	NaN	NaN	NaN	-1797.3	1047.7	328.4	-1800.8	1046.3	248.78	-1676.3	966.8	476.26	-1687.5	945.28	121.27	-1693	1111.9	454.83	-1671.4	1094.7	132.81	-1813.4	1013.6	294.78	-1752.2	733.15	455.07	NaN	NaN	NaN	-1789.1	654.66	433.78	-1680.7	720.1	440.4	-1818.6	541.78	414.68	-1798.5	547.6	287.29	NaN	NaN	NaN	-1913.5	264.08	373.89	-1975.3	277.42	376.83	-1883.1	331.26	394.4	-2003.9	147.8	346.66	-1983.3	152.42	263.99	-2076.2	122.42	295.36	-2071.8	88.4	266.96	-2078	91.95	330.77	-1908.9	46.873	382.46	-1876.5	45.959	262.08	-1811	50.612	311.82	-1529.4	716.7	141.99	NaN	NaN	NaN	-1515.7	628.23	162.09	-1483.3	751.46	185.92	-1494.4	541.2	179.84	-1475.4	553.74	301.22	-1439.6	317.1	190.82	-1355.6	290.12	184.08	-1412.8	251.47	205.88	-1384.1	354.23	174.79	-1300.7	142.84	199.09	-1296.5	172.45	286.95	NaN	NaN	NaN	NaN	NaN	NaN	-1313.6	44.902	224.63	-1164.7	141.2	179.78	-1156.5	171.85	292.55	-1109	221.02	234.87	-1756.3	1526.1	295.94	-1811.5	1251.9	299.64
3	0.0083333	NaN	NaN	NaN	-1673.6	1471.6	463.65	-1719.4	1471.5	116.24	-1634.1	1785.8	284.76	NaN	NaN	NaN	NaN	NaN	NaN	-1791.9	1047.4	328.23	-1795.3	1046	248.62	-1671.2	966.5	476.09	-1682.4	945.04	121.2	-1687.6	1111.6	454.63	-1665.9	1094.4	132.59	-1808	1013.3	294.61	-1747.5	733.02	455.17	NaN	NaN	NaN	-1784.2	654.48	433.89	-1676	719.89	440.58	-1814.2	541.75	414.78	-1793.9	547.41	287.47	NaN	NaN	NaN	NaN	NaN	NaN	-1971.5	278.27	377.57	-1880.2	331.75	394.49	-2002.6	149.2	346.97	-1982	153.68	264.32	-2075	124.5	295.76	-2071	90.606	267.2	-2077.1	93.954	331.03	-1908.6	46.924	382.55	-1876.2	46.147	262.14	-1810.9	50.516	311.85	-1523.5	716.65	142.14	NaN	NaN	NaN	-1509.8	628.2	162.25	-1477.3	751.41	186.06	-1488.8	540.87	179.96	-1469.7	553.73	301.1	-1435.6	316.35	190.93	-1352.4	288.32	184.45	-1409.3	250.4	206.13	-1380	353.05	175.28	-1298.3	141.12	199.68	-1294.2	170.54	287.5	NaN	NaN	NaN	NaN	NaN	NaN	-1312.1	43.562	224.86	-1162.7	138.85	180.44	-1154.3	168.9	293.41	-1106.4	217.99	235.88	-1751.1	1525.7	295.57	-1806.2	1251.5	299.46
4	0.0125	NaN	NaN	NaN	-1668.2	1471.4	463.27	-1714.1	1471.2	115.86	-1628.9	1785.5	284.37	NaN	NaN	NaN	NaN	NaN	NaN	-1786.3	1047.1	328.05	-1789.6	1045.7	248.44	-1665.8	966.19	475.91	-1677	944.8	121.1	-1682	1111.2	454.42	-1660.3	1094	132.36	-1802.3	1013	294.42	-1742.6	732.9	455.27	NaN	NaN	NaN	-1779.1	654.31	434.01	-1671.1	719.68	440.78	-1809.6	541.71	414.9	-1789.1	547.21	287.66	-1929	346.52	401.32	NaN	NaN	NaN	-1967.6	279.19	378.3	-1877.2	332.29	394.58	-2001.3	150.69	347.29	-1980.6	155	264.66	-2073.7	126.69	296.15	-2070.1	92.929	267.44	-2076.2	96.067	331.29	-1908.4	46.979	382.63	-1875.9	46.341	262.21	-1810.7	50.425	311.88	-1517.4	716.58	142.3	NaN	NaN	NaN	-1503.8	628.13	162.41	-1471.2	751.3	186.19	-1483.1	540.52	180.08	-1463.8	553.68	300.99	-1431.6	315.58	191.03	-1348.9	286.55	184.87	-1405.8	249.3	206.37	-1375.8	351.84	175.78	-1295.8	139.36	200.28	-1291.8	168.59	288.06	NaN	NaN	NaN	NaN	NaN	NaN	-1310.6	42.256	225.1	-1160.7	136.42	181.11	-1152.1	165.85	294.28	-1103.8	214.84	236.92	-1745.8	1525.4	295.19	-1800.7	1251.1	299.27
5	0.016667	NaN	NaN	NaN	-1662.6	1471.2	462.87	-1708.6	1470.8	115.46	-1623.6	1785.2	283.97	NaN	NaN	NaN	NaN	NaN	NaN	-1780.4	1046.9	327.84	-1783.7	1045.3	248.23	-1660.3	965.89	475.73	-1671.3	944.57	120.99	-1676.3	1110.9	454.2	-1654.4	1093.7	132.12	-1796.4	1012.8	294.22	-1737.5	732.78	455.37	NaN	NaN	NaN	-1773.9	654.13	434.13	-1666	719.48	440.98	-1804.8	541.66	415.03	-1784.1	546.99	287.86	-1926.1	347.37	401.45	NaN	NaN	NaN	-1963.6	280.17	379	-1873.9	332.88	394.66	-1999.8	152.24	347.61	-1979.1	156.38	265.01	-2072.4	128.99	296.54	-2069.2	95.365	267.68	-2075.2	98.286	331.54	-1908.1	47.039	382.72	-1875.6	46.538	262.28	-1810.6	50.34	311.91	-1511.2	716.47	142.46	NaN	NaN	NaN	-1497.7	628.02	162.57	-1465	751.14	186.3	-1477.3	540.13	180.2	-1457.9	553.56	300.89	-1427.6	314.77	191.11	-1345.2	284.82	185.33	-1402.2	248.17	206.61	-1371.4	350.58	176.29	-1293.3	137.57	200.89	-1289.4	166.6	288.63	NaN	NaN	NaN	NaN	NaN	NaN	-1309.2	41.005	225.36	-1158.6	133.9	181.79	-1149.8	162.72	295.15	-1101.1	211.58	237.97	-1740.3	1525	294.79	-1795	1250.7	299.07
